<?xml version="1.0" encoding="UTF-8"?>
<svg width="722px" height="366px" viewBox="0 0 722 366" version="1.1" xmlns="http://www.w3.org/2000/svg" xmlns:xlink="http://www.w3.org/1999/xlink">
    <!-- Generator: Sketch 50.2 (55047) - http://www.bohemiancoding.com/sketch -->
    <title>river-flow-preview</title>
    <desc>Created with Sketch.</desc>
    <defs></defs>
    <g id="Page-1" stroke="none" stroke-width="1" fill="none" fill-rule="evenodd">
        <g id="river-flow-preview" transform="translate(2.000000, 0.000000)">
            <g id="7-days-flow">
                <rect id="frame" stroke="#005EA7" stroke-width="3" x="1.5" y="2.33770485" width="717" height="361.80621"></rect>
                <g id="licence-data" transform="translate(0.000000, 253.000000)" fill="#F5752B">
                    <rect id="HOF-line" x="0" y="0.78688261" width="720" height="2"></rect>
                </g>
                <g id="now" transform="translate(677.000000, 18.000000)" fill="#000000">
                    <rect x="6.42857143" y="7" width="1" height="340"></rect>
                    <polygon id="now-pointer" points="0.968111436 0 12.9674354 0 6.96777344 8.91748047"></polygon>
                </g>
                <g id="river-data" transform="translate(0.000000, 61.000000)">
                    <path d="M0.8828125,147.148437 L12.1468172,152.765625 C17.6637113,156.114583 22.6772723,157.789062 27.1875,157.789062 C31.6977277,157.789062 38.2836652,137.28776 46.9453125,96.2851562 L58.0429688,59.5195313 C65.7351648,24.4004044 70.6362065,5.50066484 72.7460938,2.8203125 C74.855981,0.13996016 81.715356,0.13996016 93.3242188,2.8203125 C99.3541922,16.5007276 103.816432,23.9590609 106.710938,25.1953125 C111.052696,27.0496899 116.384417,14.4832838 118.237716,13.4609375 C120.091014,12.4385912 123.601927,2.8203125 127.796875,2.8203125 C131.991823,2.8203125 129.762454,13.3481589 133.542969,25.1953125 C137.323483,37.0424661 135.65702,37.6674728 142.488281,48.859375 C149.319543,60.0512772 160.882812,48.859375 169.96875,70.5703125 C179.054688,92.28125 181.137296,104.566406 181.137296,110.476562 C181.137296,114.416667 186.579124,117.207031 197.462779,118.847656 L223.888087,118.847656 L235.96933,118.847656 L248.328125,110.476562 L257.833423,124.414062 C263.004123,120.669271 267.393564,118.796875 271.001746,118.796875 C276.41402,118.796875 277.984053,124.414062 289.3125,124.414062 C300.640947,124.414062 309.055308,138.096075 318.316193,133.648438 C327.577078,129.2008 328.571217,126.598985 330.529711,125.827474 C331.835374,125.313133 335.578074,124.841996 341.757812,124.414062 C354.061299,133.414062 362.317816,137.914063 366.527362,137.914063 C372.84168,137.914063 387.797847,135.419922 391.466146,133.629557 C395.134445,131.839193 399.488437,127.375 403.688554,124.414062 C407.888672,121.453125 409.050781,123.940496 414.694281,124.414062 C420.337781,124.887629 426.93099,129.189453 440.703776,126.849609 C449.885634,125.289714 455.658811,119.832031 458.023307,110.476562 C461.60065,101.184896 466.681402,101.184896 473.265563,110.476562 C479.849725,119.768229 490.987803,124.414062 506.679798,124.414062 L524.805516,124.414062 L542.57273,137.914063 L564.88872,137.914063 C572.855504,131.285156 579.410111,129.114583 584.552542,131.402344 C592.266188,134.833984 604.401399,128.679687 604.401399,137.914063 C604.401399,147.148437 615.588306,147.148437 615.588306,147.148437 C615.588306,147.148437 628.311054,149.595261 639.130153,157.789062 C649.949252,165.982864 656.261719,170.276367 661.545898,174.165039" id="river-level" stroke="#005EA7" stroke-width="4" stroke-linecap="round" stroke-linejoin="round"></path>
                    <g id="spot" transform="translate(654.545898, 166.665039)">
                        <circle id="Oval" stroke="#005EA7" fill="#FFFFFF" cx="6.02197266" cy="6.74560547" r="5.82080078"></circle>
                        <circle id="Oval" fill="#005EA7" cx="6.02197266" cy="6.74560547" r="3.51852742"></circle>
                    </g>
                </g>
            </g>
        </g>
    </g>
</svg>